<svg width="45" height="50" viewBox="0 0 45 50" fill="none" xmlns="http://www.w3.org/2000/svg">
<g clip-path="url(#clip0)">
<path d="M39.8911 26.2142L44.6709 22.5415L41.4447 3.98083L35.5798 9.84729L35.8716 11.5357L40.5281 6.88118L43.1421 21.9458L39.0362 25.105L38.2964 25.6719L38.5389 26.5757L40.7788 34.9728L27.2243 41.8498L25.9296 42.5072L26.6325 43.7766L29.3039 48.5996H18.9715L16.6864 46.0156H14.8164L18.3427 50.0005H31.6794L27.8572 43.0988L42.4269 35.7081L39.8911 26.2142Z" fill="white"/>
<path d="M34.8482 31.727L20.2825 39.1135L24.1048 46.0151H10.7639L0 33.8551L33.8659 0L37.0922 18.5605L32.3123 22.2332L24.7829 28.0215L32.7768 23.9586L34.8482 31.727Z" fill="#FFBE00"/>
</g>
<defs>
<clipPath id="clip0">
<rect width="45" height="50" fill="white"/>
</clipPath>
</defs>
</svg>
